<svg width="131" height="25" viewBox="0 0 131 25" fill="none" xmlns="http://www.w3.org/2000/svg">
<path d="M14.3711 10.2695C14.3711 13.0898 13.5664 15.25 11.957 16.75C10.3555 18.25 8.03906 19 5.00781 19H0.15625V1.86719H5.53516C8.33203 1.86719 10.5039 2.60547 12.0508 4.08203C13.5977 5.55859 14.3711 7.62109 14.3711 10.2695ZM10.5977 10.3633C10.5977 6.68359 8.97266 4.84375 5.72266 4.84375H3.78906V16H5.34766C8.84766 16 10.5977 14.1211 10.5977 10.3633ZM27.6752 14.2422C27.6752 15.7891 27.1166 17.0078 25.9994 17.8984C24.89 18.7891 23.3431 19.2344 21.3587 19.2344C19.5306 19.2344 17.9134 18.8906 16.5072 18.2031V14.8281C17.6634 15.3438 18.64 15.707 19.4369 15.918C20.2416 16.1289 20.9759 16.2344 21.64 16.2344C22.4369 16.2344 23.0462 16.082 23.4681 15.7773C23.8978 15.4727 24.1127 15.0195 24.1127 14.418C24.1127 14.082 24.0189 13.7852 23.8314 13.5273C23.6439 13.2617 23.3666 13.0078 22.9994 12.7656C22.64 12.5234 21.9017 12.1367 20.7845 11.6055C19.7377 11.1133 18.9525 10.6406 18.4291 10.1875C17.9056 9.73438 17.4877 9.20703 17.1752 8.60547C16.8627 8.00391 16.7064 7.30078 16.7064 6.49609C16.7064 4.98047 17.2181 3.78906 18.2416 2.92188C19.2728 2.05469 20.6947 1.62109 22.5072 1.62109C23.3978 1.62109 24.2455 1.72656 25.0502 1.9375C25.8627 2.14844 26.7103 2.44531 27.5931 2.82812L26.4212 5.65234C25.5072 5.27734 24.7494 5.01562 24.1478 4.86719C23.5541 4.71875 22.9681 4.64453 22.39 4.64453C21.7025 4.64453 21.1752 4.80469 20.808 5.125C20.4408 5.44531 20.2572 5.86328 20.2572 6.37891C20.2572 6.69922 20.3314 6.98047 20.4798 7.22266C20.6283 7.45703 20.8627 7.6875 21.183 7.91406C21.5111 8.13281 22.2806 8.53125 23.4916 9.10938C25.0931 9.875 26.1908 10.6445 26.7845 11.418C27.3783 12.1836 27.6752 13.125 27.6752 14.2422ZM50.5098 10.2695C50.5098 13.0898 49.7052 15.25 48.0958 16.75C46.4942 18.25 44.1778 19 41.1466 19H36.295V1.86719H41.6739C44.4708 1.86719 46.6427 2.60547 48.1895 4.08203C49.7364 5.55859 50.5098 7.62109 50.5098 10.2695ZM46.7364 10.3633C46.7364 6.68359 45.1114 4.84375 41.8614 4.84375H39.9278V16H41.4864C44.9864 16 46.7364 14.1211 46.7364 10.3633ZM58.8452 8.19531C58.0873 8.19531 57.4936 8.4375 57.0639 8.92188C56.6342 9.39844 56.3881 10.0781 56.3256 10.9609H61.3413C61.3256 10.0781 61.0952 9.39844 60.6498 8.92188C60.2045 8.4375 59.603 8.19531 58.8452 8.19531ZM59.3491 19.2344C57.2397 19.2344 55.5913 18.6523 54.4038 17.4883C53.2163 16.3242 52.6225 14.6758 52.6225 12.543C52.6225 10.3477 53.1694 8.65234 54.2631 7.45703C55.3647 6.25391 56.8842 5.65234 58.8217 5.65234C60.6733 5.65234 62.1147 6.17969 63.1459 7.23438C64.1772 8.28906 64.6928 9.74609 64.6928 11.6055V13.3398H56.2436C56.2827 14.3555 56.5834 15.1484 57.1459 15.7188C57.7084 16.2891 58.4975 16.5742 59.5131 16.5742C60.3022 16.5742 61.0483 16.4922 61.7514 16.3281C62.4545 16.1641 63.1889 15.9023 63.9545 15.543V18.3086C63.3295 18.6211 62.6616 18.8516 61.9506 19C61.2397 19.1562 60.3725 19.2344 59.3491 19.2344ZM70.8133 19H67.2391V0.765625H70.8133V19ZM74.0627 2.51172C74.0627 1.34766 74.7111 0.765625 76.008 0.765625C77.3048 0.765625 77.9533 1.34766 77.9533 2.51172C77.9533 3.06641 77.7892 3.5 77.4611 3.8125C77.1408 4.11719 76.6564 4.26953 76.008 4.26953C74.7111 4.26953 74.0627 3.68359 74.0627 2.51172ZM77.7892 19H74.215V5.89844H77.7892V19ZM84.3081 19L79.3159 5.89844H83.0542L85.5855 13.3633C85.8667 14.3086 86.0425 15.2031 86.1128 16.0469H86.1831C86.2222 15.2969 86.398 14.4023 86.7105 13.3633L89.23 5.89844H92.9683L87.9761 19H84.3081ZM99.9208 8.19531C99.163 8.19531 98.5692 8.4375 98.1395 8.92188C97.7098 9.39844 97.4638 10.0781 97.4013 10.9609H102.417C102.401 10.0781 102.171 9.39844 101.725 8.92188C101.28 8.4375 100.679 8.19531 99.9208 8.19531ZM100.425 19.2344C98.3153 19.2344 96.6669 18.6523 95.4794 17.4883C94.2919 16.3242 93.6981 14.6758 93.6981 12.543C93.6981 10.3477 94.245 8.65234 95.3388 7.45703C96.4403 6.25391 97.9598 5.65234 99.8973 5.65234C101.749 5.65234 103.19 6.17969 104.222 7.23438C105.253 8.28906 105.768 9.74609 105.768 11.6055V13.3398H97.3192C97.3583 14.3555 97.6591 15.1484 98.2216 15.7188C98.7841 16.2891 99.5731 16.5742 100.589 16.5742C101.378 16.5742 102.124 16.4922 102.827 16.3281C103.53 16.1641 104.265 15.9023 105.03 15.543V18.3086C104.405 18.6211 103.737 18.8516 103.026 19C102.315 19.1562 101.448 19.2344 100.425 19.2344ZM115.627 5.65234C116.112 5.65234 116.514 5.6875 116.834 5.75781L116.565 9.10938C116.276 9.03125 115.924 8.99219 115.51 8.99219C114.369 8.99219 113.479 9.28516 112.838 9.87109C112.205 10.457 111.889 11.2773 111.889 12.332V19H108.315V5.89844H111.022L111.549 8.10156H111.725C112.131 7.36719 112.678 6.77734 113.365 6.33203C114.061 5.87891 114.815 5.65234 115.627 5.65234ZM116.978 5.89844H120.892L123.365 13.2695C123.576 13.9102 123.72 14.668 123.798 15.543H123.869C123.955 14.7383 124.123 13.9805 124.373 13.2695L126.798 5.89844H130.63L125.088 20.6758C124.58 22.043 123.853 23.0664 122.908 23.7461C121.97 24.4258 120.873 24.7656 119.615 24.7656C118.998 24.7656 118.392 24.6992 117.798 24.5664V21.7305C118.228 21.832 118.697 21.8828 119.205 21.8828C119.838 21.8828 120.388 21.6875 120.857 21.2969C121.334 20.9141 121.705 20.332 121.97 19.5508L122.181 18.9062L116.978 5.89844Z" fill="white"/>
</svg>
